<svg xmlns="http://www.w3.org/2000/svg" xmlns:xlink="http://www.w3.org/1999/xlink" width="119.506" height="202.849" viewBox="0 0 119.506 202.849">
  <defs>
    <clipPath id="clip-path">
      <rect id="Rectangle_109" data-name="Rectangle 109" width="119.506" height="145.181" fill="none"/>
    </clipPath>
  </defs>
  <g id="Group_14537" data-name="Group 14537" transform="translate(-1085.797 -236.86)">
    <g id="Group_8871" data-name="Group 8871" transform="translate(1085.797 294.527)">
      <g id="Group_8870" data-name="Group 8870" clip-path="url(#clip-path)">
        <g id="Group_8869" data-name="Group 8869" transform="translate(7.536 0.951)">
          <path id="Path_22166" data-name="Path 22166" d="M1207.659,586.3c.222.322-1.1,2.082-2.294,2.157-1.24.077-3.209-2.312-2.341-1.98.828.452,1.293,1.11,1.995,1.1S1206.927,586.146,1207.659,586.3Z" transform="translate(-1154.208 -472.42)" fill="#646464"/>
          <path id="Path_22167" data-name="Path 22167" d="M1248.423,559.569a29.422,29.422,0,0,1-1.928-15.4q1.3-10.646,2.735-21.279c5.16-35.088,6.657-35.859,6.456-35.75-.341.184-1.892,5.489-3.058,11.121-1.147,5.547-3.183,18.531-3.677,22.066q-1.2,8.623-2.4,17.246c-.292,2.1-1.148,7.591-1.222,9.5a32.382,32.382,0,0,0,3.043,14.553c1.269,2.8,2.336,6.038,3.04,7.878q.809,2.112,1.617,4.225c.15.392,1.4,4.141,2.644,7.555a102.17,102.17,0,0,1,5.545,30.083c.333,10.5-2.052,18.133-3.329,25.682-.086.511,1.131-3.754,1.923-7.038a75.67,75.67,0,0,0,2.3-15.854c.348-10.994-1.746-21.7-5.208-32.078C1254.363,574.476,1251.427,567,1248.423,559.569Z" transform="translate(-1164.459 -448.502)" fill="#646464"/>
          <path id="Path_22168" data-name="Path 22168" d="M1163.845,538.516q-1.2-8.624-2.4-17.246c-.494-3.535-2.53-16.52-3.677-22.066-1.165-5.632-2.716-10.936-3.058-11.12-.2-.109,1.3.661,6.456,35.749q1.446,10.628,2.735,21.278a29.415,29.415,0,0,1-1.927,15.4c-3,7.432-5.94,14.908-8.475,22.508-3.462,10.381-5.557,21.085-5.207,32.078a75.656,75.656,0,0,0,2.3,15.854c.791,3.283,2.009,7.548,1.923,7.038-1.276-7.549-3.662-15.182-3.329-25.682a102.158,102.158,0,0,1,5.545-30.082c1.244-3.414,2.493-7.163,2.644-7.556l1.616-4.225c.7-1.839,1.772-5.073,3.04-7.878a32.4,32.4,0,0,0,3.043-14.553C1164.993,546.107,1164.137,540.621,1163.845,538.516Z" transform="translate(-1141.047 -448.73)" fill="#646464"/>
          <path id="Path_22169" data-name="Path 22169" d="M1205.522,660.137a1.234,1.234,0,0,0-.73.363c-.87,1.014.318,16.441.741,16.176.466-.292-.968-13.814-.066-15.781a1.955,1.955,0,0,1,1.2-.342,2.229,2.229,0,0,1,1.245.308c.948,1.836-.518,15.522-.049,15.815.423.266,1.272-14.949.741-16.176-.1-.223-.385-.335-.739-.381-.191-.025-.711-.039-1.22-.036A9.024,9.024,0,0,0,1205.522,660.137Z" transform="translate(-1154.611 -490.221)" fill="#646464"/>
          <path id="Path_22170" data-name="Path 22170" d="M1264.434,462.71a46.3,46.3,0,0,0-1.289-8.693c-1.615-6.417-5.3-9.3-11.876-9.707a11.76,11.76,0,0,1-2.59-.279c-4.9-1.457-9.422-2.736-13.789-5.415-.465-.285-1.8-1.332-1.706-1.081.162.418,1.325,1.4,5.046,3.465a59.432,59.432,0,0,0,6.806,2.844c.489.2,3.213.973,1.417.956-6.882.682-16.334,1.926-20.612,2.59-1.428.222,20.173-2.049,21.354-2.153a20.543,20.543,0,0,1,9.692,1.394c3.1,1.257,5.27,6.015,6.189,11.988.2,1.275.335,2.6.414,3.967.138,2.329.238,5.063.316,7.832.2,7.3.246,14.846.4,15.829A229.011,229.011,0,0,0,1264.434,462.71Z" transform="translate(-1159.747 -436.529)" fill="#646464"/>
          <path id="Path_22171" data-name="Path 22171" d="M1156.939,445.743c-1.8.017.928-.757,1.417-.956a59.62,59.62,0,0,0,6.806-2.843c3.721-2.062,4.884-3.048,5.046-3.466.1-.251-1.241.8-1.706,1.081-4.368,2.678-8.885,3.958-13.789,5.415a11.761,11.761,0,0,1-2.591.279c-6.576.409-10.26,3.29-11.875,9.707a46.3,46.3,0,0,0-1.289,8.693,228.78,228.78,0,0,0,.225,23.538c.158-.983.2-8.526.4-15.829.077-2.769.177-5.5.315-7.832.08-1.363.219-2.692.415-3.967.919-5.973,3.085-10.731,6.189-11.988a20.542,20.542,0,0,1,9.692-1.394c1.182.1,22.782,2.374,21.354,2.153C1173.273,447.669,1163.821,446.425,1156.939,445.743Z" transform="translate(-1138.757 -436.756)" fill="#646464"/>
          <path id="Path_22172" data-name="Path 22172" d="M1200.985,452.026c.238-.354,1.555,3.112,3.185,3.967a2.214,2.214,0,0,0,.445.131c1.516.095,2.832-2.084,3.056-2.119.72.036-1.478,2.424-2.8,2.423C1202.666,456.426,1200.758,452.133,1200.985,452.026Z" transform="translate(-1153.763 -440.027)" fill="#646464"/>
          <g id="Group_8868" data-name="Group 8868" transform="translate(9.23)">
            <g id="Group_8867" data-name="Group 8867" transform="translate(3.377 3.72)">
              <path id="Path_22173" data-name="Path 22173" d="M1197.978,450.881c-12.379-.6-22.812-7.608-23.411-9.758a8.759,8.759,0,0,1-6.063,3.6c4.083,9.132,5.432,19.318,5.049,29.313s-.793,38.622-7.949,41.485c-1.439.575,2.77,18.086,3.427,24.151.227,2.089-.86,8.167-1.755,10.524-2.862,7.54-8.4,17.438-11.9,34.582,11.3,3.085,21.16,6.826,30.723,13.594,1.322.936,7.743,6.365,10.521,12.145a2.269,2.269,0,0,1,1.049-.023,2.916,2.916,0,0,0,.85,0,2.27,2.27,0,0,1,1.049.023c2.777-5.78,9.2-11.209,10.52-12.145,9.563-6.768,19.42-10.509,30.723-13.594-3.508-17.185-8.633-27.268-11.924-34.635-4.6-10.289-1.254-17.667,1.606-35.576-4.148-4.654-5.144-8.463-6.047-14.632a138.73,138.73,0,0,1,.679-44.27,30.88,30.88,0,0,1,3.667-9.9L1221.9,441.4a30.1,30.1,0,0,1-23.475,9.494" transform="translate(-1155.373 -441.123)" fill="#fff"/>
            </g>
            <path id="Path_22174" data-name="Path 22174" d="M1237.881,580.6c-.636-2.993-1.339-5.972-2.145-8.925s-1.73-5.874-2.747-8.762-2.143-5.736-3.35-8.544-2.5-5.572-3.763-8.324a24.347,24.347,0,0,1-2.273-8.49,38.606,38.606,0,0,1,.508-8.911c.454-2.981,1.016-5.967,1.557-8.96s1.05-6,1.514-9.011l.042-.273-.181-.2a23.734,23.734,0,0,1-2.641-3.449,19.347,19.347,0,0,1-1.853-3.908,48.411,48.411,0,0,1-1.782-8.614c-.408-2.928-.749-5.868-.963-8.82s-.326-5.909-.357-8.868a137.049,137.049,0,0,1,1.022-17.718c.385-2.927.807-5.884,1.446-8.741a31.126,31.126,0,0,1,3.309-8.125l.171-.3-.291-.186c-2.289-1.466-4.588-2.918-6.867-4.4l-.272-.178-.235.238a30.747,30.747,0,0,1-10.681,7.155,30.241,30.241,0,0,1-12.232,1.971,6.171,6.171,0,0,0-.95-.051,40,40,0,0,1-12.02-2.77,40.669,40.669,0,0,1-5.792-2.81,26.1,26.1,0,0,1-2.643-1.776,13.1,13.1,0,0,1-1.169-1.007,5.7,5.7,0,0,1-.479-.53c-.139-.166-1.459-1.1-1.459-1.1l-.3.432a7.917,7.917,0,0,1-5.47,3.243l-1.147.131.466,1.065a57.66,57.66,0,0,1,3.657,11.452,72.73,72.73,0,0,1,1.433,11.987c.076,2.02.056,4.032,0,6.065l-.141,6.11c-.11,4.069-.275,8.134-.579,12.188a103.254,103.254,0,0,1-1.52,12.078,35.709,35.709,0,0,1-1.612,5.836,13.571,13.571,0,0,1-1.353,2.672,6.6,6.6,0,0,1-.949,1.128,4.47,4.47,0,0,1-.572.45c-.1.059-.2.132-.312.182l-.163.077-.081.039a.541.541,0,0,0-.142.095.883.883,0,0,0-.209.444,3.013,3.013,0,0,0-.055.407,7.388,7.388,0,0,0,0,.785c.02.517.071,1.027.128,1.536.118,1.018.275,2.027.442,3.034.335,2.013.727,4.014,1.109,6.016l1.147,6.005c.368,2,.747,4.008.986,6.026a15.637,15.637,0,0,1-.143,2.93c-.119.977-.276,1.95-.458,2.917a26.663,26.663,0,0,1-1.59,5.666c-1.49,3.649-3.18,7.221-4.681,10.879-1.516,3.649-2.923,7.351-4.118,11.126s-2.207,7.608-3.054,11.48l-.1.441.448.129c3.991,1.151,7.945,2.419,11.8,3.918a91.252,91.252,0,0,1,11.212,5.244c1.793,1.016,3.559,2.079,5.266,3.232.434.278.848.585,1.272.876s.854.583,1.221.885c.779.627,1.545,1.315,2.286,2.016a38.325,38.325,0,0,1,6.646,8.059l.411.744c.128.237.263.471.383.712a11.406,11.406,0,0,0,2.6.184,18.267,18.267,0,0,0,2.106-.178c.125-.25.266-.492.4-.738l.4-.708a37.532,37.532,0,0,1,6.714-7.988c.745-.692,1.52-1.367,2.3-1.985.363-.294.795-.574,1.22-.869s.841-.591,1.276-.864c1.712-1.137,3.481-2.185,5.276-3.183s3.647-1.9,5.518-2.754,3.786-1.618,5.711-2.354c3.859-1.456,7.812-2.681,11.805-3.789l.882-.244Zm-42.666-133.033a31.272,31.272,0,0,0,12.231-2.292,31.589,31.589,0,0,0,10.637-7.346c2.125,1.313,4.238,2.647,6.355,3.974a31.715,31.715,0,0,0-3.154,8.026c-.632,2.938-1.024,5.867-1.392,8.822a142.742,142.742,0,0,0-1.11,17.792,149.051,149.051,0,0,0,1.134,17.8,49.286,49.286,0,0,0,1.688,8.816,20.719,20.719,0,0,0,1.886,4.147,24.418,24.418,0,0,0,2.512,3.438q-.753,4.356-1.621,8.693c-.589,2.98-1.221,5.957-1.709,8.982a40.043,40.043,0,0,0-.628,9.248,24.847,24.847,0,0,0,.344,2.776c-2.1.829-4.223,1.6-6.373,2.246-2.446.76-4.927,1.378-7.424,1.908-2.5.508-5.016.946-7.55,1.26-2.269.288-4.547.525-6.832.691-2.281-.165-4.553-.4-6.818-.689-2.534-.316-5.048-.751-7.549-1.26-2.5-.53-4.978-1.148-7.425-1.908-2.452-.742-4.864-1.63-7.26-2.6a51.7,51.7,0,0,0,6.953,3.459,61.185,61.185,0,0,0,7.393,2.471,73.4,73.4,0,0,0,7.636,1.6c2.1.337,4.221.568,6.34.756h1.474c2.119-.188,4.236-.42,6.341-.755a73.457,73.457,0,0,0,7.636-1.6,61.2,61.2,0,0,0,7.393-2.471,53.139,53.139,0,0,0,6.091-2.967,26.321,26.321,0,0,0,1.935,6.14c1.234,2.791,2.5,5.54,3.676,8.328s2.267,5.6,3.25,8.454,1.863,5.741,2.651,8.655c.7,2.627,1.311,5.277,1.871,7.938-3.742,1.03-7.464,2.167-11.122,3.518a87.445,87.445,0,0,0-11.5,5.214c-1.844,1.024-3.661,2.1-5.421,3.264-.446.281-.873.592-1.31.886s-.873.584-1.323.944c-.855.675-1.641,1.38-2.42,2.106a37.57,37.57,0,0,0-7.564,9.451c-.093,0-.18.01-.262.017h-.139l-1.041,0-.376,0-.039,0a36.736,36.736,0,0,0-7.633-9.371c-.783-.718-1.578-1.411-2.431-2.076-.445-.351-.891-.633-1.322-.928s-.867-.6-1.314-.875c-1.763-1.15-3.584-2.209-5.431-3.216s-3.744-1.918-5.667-2.761-3.881-1.6-5.851-2.316c-3.8-1.363-7.671-2.5-11.562-3.516q1.089-5.565,2.663-11.022c1.1-3.78,2.4-7.5,3.843-11.172s3.072-7.266,4.534-10.939a26.923,26.923,0,0,0,1.572-5.72c.178-.973.329-1.95.444-2.933a15.792,15.792,0,0,0,.127-2.975c-.232-2.032-.6-4.037-.965-6.044l-1.123-6.01c-.371-2-.723-4.011-1.034-6.022-.153-1.005-.3-2.013-.4-3.021-.05-.5-.094-1.009-.105-1.511a6.879,6.879,0,0,1,.014-.743,2.509,2.509,0,0,1,.051-.35.551.551,0,0,1,.1-.244c.01-.012.006,0,.014-.012l.092-.042.184-.083c.124-.054.234-.13.352-.194a4.892,4.892,0,0,0,.64-.478,7.1,7.1,0,0,0,1.044-1.181,14.081,14.081,0,0,0,1.47-2.737,36.2,36.2,0,0,0,1.782-5.9,104.751,104.751,0,0,0,1.825-12.134c.407-4.068.674-8.146.885-12.222l.292-6.11c.095-2.04.143-4.106.1-6.161s-.174-4.115-.383-6.166-.539-4.091-.946-6.115a55.9,55.9,0,0,0-3.311-10.82,9.64,9.64,0,0,0,4.78-2.819q.225.258.458.486a14.66,14.66,0,0,0,1.33,1.126,27.856,27.856,0,0,0,2.83,1.861,40.913,40.913,0,0,0,6.058,2.855,41.636,41.636,0,0,0,12.077,2.614" transform="translate(-1150.922 -436.221)" fill="#d13246"/>
          </g>
        </g>
      </g>
    </g>
    <text id="Arms" transform="translate(1144.73 262.86)" fill="#aa1432" font-size="20" font-family="Cairo-Regular, Cairo"><tspan x="-22.43" y="0">Arms</tspan></text>
  </g>
</svg>
