<svg xmlns="http://www.w3.org/2000/svg" xmlns:xlink="http://www.w3.org/1999/xlink" width="119.506" height="202.849" viewBox="0 0 119.506 202.849">
  <defs>
    <clipPath id="clip-path">
      <rect id="Rectangle_110" data-name="Rectangle 110" width="119.506" height="145.181" fill="none"/>
    </clipPath>
  </defs>
  <g id="Group_14535" data-name="Group 14535" transform="translate(-1354.919 -236.86)">
    <g id="Group_8877" data-name="Group 8877" transform="translate(1354.919 294.527)">
      <g id="Group_8876" data-name="Group 8876" clip-path="url(#clip-path)">
        <g id="Group_8875" data-name="Group 8875" transform="translate(7.154 -117.623)">
          <path id="Path_22175" data-name="Path 22175" d="M1524.8,596.843c-.071-2.192-.26-4.374-.517-6.547q-.429-3.254-1.064-6.475c-.823-4.3-1.853-8.553-2.94-12.8l-3.284-12.732c-1.072-4.231-2.392-8.407-3.7-12.589-2.564-8.379-5.248-16.737-7.469-25.234-1.1-4.251-2.109-8.529-2.867-12.859-.36-2.168-.649-4.35-.8-6.543a26.006,26.006,0,0,1,.239-6.57,28.136,28.136,0,0,0,.045,6.544c.233,2.173.6,4.33,1.038,6.472.858,4.288,1.955,8.527,3.147,12.738,2.38,8.425,5.05,16.77,7.7,25.132,1.276,4.2,2.571,8.393,3.621,12.67,1.042,4.256,2.153,8.5,3.137,12.773C1523.029,579.359,1524.965,588.038,1524.8,596.843Z" transform="translate(-1495.132 -331.705)" fill="#646464"/>
          <path id="Path_22176" data-name="Path 22176" d="M1596.008,582.563q-.027-3.214.259-6.427c.215-2.134.479-4.267.833-6.384.675-4.241,1.6-8.435,2.583-12.61s2.027-8.334,3.037-12.5l2.994-12.5c1.957-8.341,3.818-16.706,5.518-25.1.858-4.194,1.688-8.4,2.38-12.615.187-1.053.345-2.109.5-3.166s.313-2.113.423-3.172l.184-1.587c.052-.529.077-1.057.116-1.586a27.619,27.619,0,0,0,.054-3.145v-.039c0-4.007-.068-8.011-.43-11.993a73.368,73.368,0,0,0-2.023-11.8,84.792,84.792,0,0,0-3.882-11.355q-2.311-5.571-4.23-11.286c1.427,3.754,2.924,7.481,4.554,11.147a77.423,77.423,0,0,1,4.151,11.336,74.078,74.078,0,0,1,2.228,11.884,113.225,113.225,0,0,1,.568,12.071V481.7a28.438,28.438,0,0,1-.036,3.279c-.038.539-.061,1.083-.11,1.62l-.178,1.606c-.106,1.074-.255,2.139-.411,3.2s-.3,2.129-.482,3.187c-.673,4.245-1.484,8.459-2.322,12.666-1.719,8.407-3.644,16.765-5.64,25.106-1.958,8.35-4.225,16.627-6.338,24.927C1598.266,565.595,1596.2,573.968,1596.008,582.563Z" transform="translate(-1517.794 -317.425)" fill="#646464"/>
          <path id="Path_22177" data-name="Path 22177" d="M1564.208,513.409l.146,21.9c.093,7.294.1,14.6.555,21.861.442,7.3.468,14.622.485,21.917,0,3.649.023,7.3.138,10.94a106.88,106.88,0,0,0,.752,10.91c-1.338-7.2-1.5-14.548-1.717-21.839-.188-7.3-.2-14.6-.73-21.863-.2-3.66-.277-7.315-.316-10.969s-.064-7.306.01-10.958q.085-5.478.228-10.954C1563.893,520.7,1564,517.056,1564.208,513.409Z" transform="translate(-1509.95 -336.266)" fill="#646464"/>
          <path id="Path_22178" data-name="Path 22178" d="M1562.79,513.409c.093,3.651.1,7.3.138,10.954l-.045,10.955c-.011,3.652-.12,7.3-.214,10.955s-.231,7.3-.439,10.958c-.541,7.254-.215,14.544-.081,21.846.091,7.282.326,14.679-1.15,21.862a69.908,69.908,0,0,0,.635-10.9c0-3.644-.15-7.287-.312-10.933a209.828,209.828,0,0,1-.164-21.939c.479-7.268.646-14.569.9-21.862l.344-10.945Z" transform="translate(-1509.333 -336.266)" fill="#646464"/>
          <g id="Group_8874" data-name="Group 8874">
            <path id="Path_22179" data-name="Path 22179" d="M1561.832,428.758c.223.322-1.1,2.082-2.294,2.157-1.24.077-3.209-2.312-2.341-1.98.829.452,1.293,1.11,1.995,1.1S1561.1,428.6,1561.832,428.758Z" transform="translate(-1508.381 -315.844)" fill="#646464"/>
            <path id="Path_22180" data-name="Path 22180" d="M1602.6,402.026a29.416,29.416,0,0,1-1.928-15.4q1.3-10.648,2.735-21.279c5.161-35.088,6.657-35.858,6.456-35.749-.342.184-1.892,5.489-3.057,11.121-1.148,5.547-3.184,18.53-3.677,22.066q-1.2,8.623-2.4,17.246c-.292,2.1-1.148,7.591-1.222,9.5a32.384,32.384,0,0,0,3.043,14.553c1.269,2.8,2.335,6.038,3.04,7.878q.809,2.112,1.616,4.225c.151.392,2.054,4.393,3.3,7.806,3.77,10.346,4.632,21.678,4.89,29.832.333,10.5,1.682,4.129.406,11.678-.086.511,1.131-3.754,1.923-7.038.2-.818-1.518,5.383-1.438-1.85.349-10.993-1.746-21.7-5.208-32.078C1608.536,416.933,1605.6,409.457,1602.6,402.026Z" transform="translate(-1518.632 -291.926)" fill="#646464"/>
            <path id="Path_22181" data-name="Path 22181" d="M1518.019,380.973q-1.2-8.624-2.4-17.246c-.494-3.535-2.53-16.519-3.677-22.066-1.165-5.632-2.716-10.936-3.057-11.121-.2-.109,1.3.662,6.456,35.75q1.445,10.628,2.735,21.279a29.415,29.415,0,0,1-1.928,15.4c-3,7.432-5.939,14.908-8.474,22.509-3.462,10.381-5.557,21.084-5.208,32.078.08,7.232,1.158,1.566.891-2.791a102.14,102.14,0,0,1,5.544-30.083c1.244-3.414,2.493-7.163,2.644-7.555q.809-2.112,1.617-4.225c.7-1.839,1.771-5.073,3.04-7.878a32.384,32.384,0,0,0,3.043-14.553C1519.166,388.564,1518.31,383.078,1518.019,380.973Z" transform="translate(-1495.221 -292.153)" fill="#646464"/>
            <path id="Path_22182" data-name="Path 22182" d="M1618.607,305.166a46.249,46.249,0,0,0-1.289-8.694c-1.615-6.416-5.3-9.3-11.875-9.707a11.707,11.707,0,0,1-2.59-.278c-4.9-1.457-9.422-2.737-13.79-5.415-.464-.285-1.8-1.332-1.706-1.081.162.419,1.324,1.405,5.045,3.466a59.493,59.493,0,0,0,6.806,2.844c.49.2,3.213.973,1.418.955-6.882.683-16.335,1.926-20.613,2.591-1.428.222,20.173-2.049,21.354-2.153a20.529,20.529,0,0,1,9.692,1.394c3.1,1.257,5.27,6.015,6.189,11.988.2,1.274.335,2.6.415,3.967.138,2.329.237,5.063.315,7.832.2,7.3.247,14.846.4,15.829A228.489,228.489,0,0,0,1618.607,305.166Z" transform="translate(-1513.921 -279.952)" fill="#646464"/>
            <path id="Path_22183" data-name="Path 22183" d="M1511.112,288.2c-1.794.017.928-.757,1.418-.956a59.423,59.423,0,0,0,6.806-2.844c3.721-2.061,4.884-3.047,5.046-3.466.1-.25-1.241.8-1.706,1.081-4.368,2.678-8.885,3.958-13.79,5.415a11.718,11.718,0,0,1-2.591.278c-6.576.41-10.26,3.291-11.876,9.707a46.319,46.319,0,0,0-1.289,8.694,228.973,228.973,0,0,0,.225,23.538c.158-.983.2-8.526.405-15.829.077-2.769.177-5.5.315-7.832.08-1.363.219-2.692.415-3.967.919-5.973,3.084-10.731,6.188-11.988a20.542,20.542,0,0,1,9.692-1.394c1.182.1,22.782,2.374,21.355,2.153C1527.447,290.126,1517.994,288.882,1511.112,288.2Z" transform="translate(-1492.931 -280.18)" fill="#646464"/>
            <path id="Path_22184" data-name="Path 22184" d="M1555.158,294.483c.238-.354,1.555,3.113,3.186,3.967a2.2,2.2,0,0,0,.444.131c1.516.095,2.833-2.085,3.057-2.119.719.036-1.479,2.424-2.8,2.423C1556.839,298.883,1554.931,294.589,1555.158,294.483Z" transform="translate(-1507.937 -283.451)" fill="#646464"/>
            <path id="Path_22185" data-name="Path 22185" d="M1545,455.915c-12.112-.543-25.083-2.307-36.537-5.953l.065-.165a73.936,73.936,0,0,0-6.8,41.6,188.557,188.557,0,0,0,44.17,5.833c-.138-2.113-.609-5.453.176-6.084a2.114,2.114,0,0,1,.86-.225h.134a2.174,2.174,0,0,1,.874.225c.8.631.319,3.971.178,6.084a194.311,194.311,0,0,0,44.859-5.833,72.942,72.942,0,0,0-6.905-41.6l.065.165c-11.546,3.619-24.612,5.384-36.835,5.94C1548.47,455.941,1545.723,455.948,1545,455.915Z" transform="translate(-1494.904 -320.922)" fill="#fff"/>
            <path id="Path_22186" data-name="Path 22186" d="M1569.832,306.665c7.349,9.964,20.321,31.359,20.321,31.359-1.086,8.21-2.892,18.847-3.37,25.049.134.1-13.617,1.925-24.323,2.839-3.1.265-13.637.244-16.929-.043-10.629-.927-23.955-2.7-23.822-2.8-.477-6.2-2.284-16.839-3.37-25.049,0,0,12.973-21.4,20.321-31.359a40.547,40.547,0,0,0,31.172,0" transform="translate(-1499.06 -286.396)" fill="#fff"/>
            <g id="Group_8872" data-name="Group 8872" transform="translate(39.123 19.791)">
              <path id="Path_22187" data-name="Path 22187" d="M1560.793,310.1a40.967,40.967,0,0,1-16.031-3.156.477.477,0,0,1,.412-.86c.145.07,14.706,6.867,30.779-.008a.477.477,0,1,1,.375.878A39.31,39.31,0,0,1,1560.793,310.1Z" transform="translate(-1544.491 -306.035)" fill="#fff"/>
            </g>
            <g id="Group_8873" data-name="Group 8873" transform="translate(5.926 4.015)">
              <path id="Path_22188" data-name="Path 22188" d="M1592.875,469.373a73.168,73.168,0,0,0-6.747-20.318l-.2.09.014-.03a124.38,124.38,0,0,1-20.234,4.587c-3.427.506-6.875.867-10.328,1.15-.456.037-.912.068-1.368.1-.014-.074-.024-.147-.038-.219,0,.074,0,.147,0,.222-1.26.093-2.521.177-3.784.241-.864.065-1.731.05-2.6.057l-.774,0,0-.047,0,.048-1.818.008h1.817c-.121,1.987-.219,3.97-.318,5.953l-4.405-.074-5.19-.312-5.177-.509c-1.716-.253-3.435-.486-5.156-.718a140.066,140.066,0,0,1-20.123-4.816q1-2.685,2.214-5.286a122.424,122.424,0,0,0,17.927,4A169.357,169.357,0,0,0,1545,455.266a169.332,169.332,0,0,1-18.4-1.845,120.072,120.072,0,0,1-17.809-4.207l0-.008-.291-.128a74.537,74.537,0,0,0-7.238,41.754l.049.4.4.108q5.394,1.442,10.87,2.561c3.649.744,7.32,1.39,11.012,1.9s7.4.916,11.113,1.209,7.443.45,11.17.51l1.009.016-.067-1.009c-.071-1.059-.177-2.076-.228-3.075a14.181,14.181,0,0,1-.012-1.443,3.857,3.857,0,0,1,.074-.615.547.547,0,0,1,.03-.111l0-.01.059-.017c.045-.011.09-.019.128-.024l.052,0H1547a.922.922,0,0,1,.251.033c.02,0,.039.012.058.017l0,.011a.49.49,0,0,1,.03.109,3.735,3.735,0,0,1,.071.612c.023.453.01.945-.014,1.442-.052,1-.16,2.015-.231,3.076l-.069,1.023,1.024-.015q5.676-.084,11.341-.5c3.774-.271,7.538-.685,11.286-1.2s7.482-1.127,11.19-1.875,7.391-1.6,11.046-2.564l.441-.117.055-.438A72.25,72.25,0,0,0,1592.875,469.373ZM1555.383,454.9q5.184-.392,10.34-1.09c3.436-.463,6.857-1.036,10.253-1.746,3.336-.7,6.65-1.522,9.921-2.5q1.221,2.57,2.226,5.232a145.029,145.029,0,0,1-20.114,4.773c-1.721.233-3.44.468-5.155.723l-5.177.516-2.87.179a58.874,58.874,0,0,0-.788-6C1554.474,454.959,1554.929,454.93,1555.383,454.9Zm-7.553,27.019-.123-6.014-.055-3.444-.081-3.448c-.039-1.956-.115-3.914-.2-5.872l5.2-.143,1.372-.1c-.036,1.277-.1,2.553-.172,3.827q-.1,1.991-.251,3.981c-.232,2.644-.222,5.376-1.213,7.538a5.914,5.914,0,0,1-.939,1.457,8.071,8.071,0,0,1-1.315,1.213A5.1,5.1,0,0,1,1547.83,481.914Zm-1.007-26.649h.773c.867,0,1.734.015,2.6-.046,1.262-.059,2.523-.138,3.783-.225.043,2.021.055,4.034.016,6.043l-1.507.094-5.2.1h-.012C1547.166,459.24,1547.03,457.25,1546.823,455.265Zm45.4,34.945q-5.257,1.253-10.577,2.21c-3.692.662-7.4,1.244-11.12,1.7s-7.455.806-11.193,1.072q-5.09.352-10.193.428c.059-.678.121-1.367.16-2.072a14.735,14.735,0,0,0,.016-1.653,5.526,5.526,0,0,0-.118-.923,2.13,2.13,0,0,0-.073-.265,1.8,1.8,0,0,0-.106-.285,3.158,3.158,0,0,0-.175-.318,2.632,2.632,0,0,0-.321-.348l-.056-.051-.105-.052a3.1,3.1,0,0,0-.655-.24,2.851,2.851,0,0,0-.706-.086l-.172,0c-.065,0-.129.01-.189.017a3,3,0,0,0-.346.066,3.067,3.067,0,0,0-.657.245l-.106.055-.055.05a2.739,2.739,0,0,0-.318.351,3.5,3.5,0,0,0-.169.318,1.876,1.876,0,0,0-.1.284,1.961,1.961,0,0,0-.069.263,5.623,5.623,0,0,0-.113.919,15.825,15.825,0,0,0,.018,1.65c.039.709.1,1.4.159,2.086-3.349-.053-6.7-.2-10.039-.42q-5.526-.365-11.025-1.059c-3.663-.469-7.318-1.015-10.954-1.681q-5.25-.958-10.442-2.219a72.368,72.368,0,0,1,.2-20.734,74.277,74.277,0,0,1,3.823-14.714,95.031,95.031,0,0,0,19.866,6.257c1.729.313,3.462.621,5.2.911l5.239.651,5.268.378,4.395.112c-.091,1.961-.188,3.922-.251,5.884l-.119,3.449-.069,3.453c-.052,2.3-.033,4.609,0,6.916l.011.712.685.175a4.342,4.342,0,0,0,2.533-.178,7.581,7.581,0,0,0,1.987-1.1,9.956,9.956,0,0,0,1.6-1.518,7.771,7.771,0,0,0,1.2-1.912,12.667,12.667,0,0,0,.929-4.176c.1-1.38.137-2.7.161-4.046s.027-2.684.013-4.026q-.038-1.963-.146-3.925l2.9-.213,5.238-.659q2.6-.438,5.2-.915a96.932,96.932,0,0,0,19.856-6.217,73.367,73.367,0,0,1,3.882,14.7A71.243,71.243,0,0,1,1592.221,490.21Z" transform="translate(-1500.741 -324.758)" fill="#d13246"/>
              <path id="Path_22189" data-name="Path 22189" d="M1515.287,342.7l.852,6.248c.268,2.081.515,4.163.678,6.233l.357-.805c-.39,2.578.473,1.191.241,1.608l.093.031.074.02.093.02.147.028.267.046.516.081,1.021.149,2.034.278,4.064.521q4.066.5,8.138.95c2.724.284,5.418.559,8.179.775,2.778.159,5.5.168,8.237.178q2.052,0,4.107-.036c1.374-.029,2.733-.058,4.147-.163,2.728-.238,5.442-.527,8.157-.83s5.425-.631,8.133-.975l4.062-.535,2.031-.285,1.019-.152.514-.084.265-.048.144-.028.089-.02.07-.018.081-.028c-.192-.365.542.839.207-1.379l.307.69c.147-2.075.379-4.162.631-6.246s.531-4.17.816-6.256c.567-4.172,1.168-8.344,1.685-12.534l.025-.2-.1-.162q-2.471-3.973-4.985-7.912-2.533-3.929-5.112-7.828t-5.226-7.752q-2.358-3.426-4.855-6.752a41.329,41.329,0,0,0,16.847-12.741.954.954,0,1,0-1.511-1.165,39.749,39.749,0,0,1-30.37,15.146h-.479a39.754,39.754,0,0,1-30.381-15.146.954.954,0,1,0-1.511,1.165,41.092,41.092,0,0,0,14.98,11.914c-1.795,2.409-3.5,4.872-5.191,7.347-1.758,2.578-3.478,5.179-5.184,7.79q-5.112,7.834-10.027,15.792l-.152.247.038.3C1514.081,334.357,1514.7,338.526,1515.287,342.7Zm2.88,11.558a.118.118,0,0,1,.152.026Zm64.154.143a.1.1,0,0,1,.126-.02l-.015,0Zm-57.477-39.824c1.653-2.637,3.32-5.264,5.023-7.866,1.631-2.49,3.282-4.969,5.009-7.384a33.3,33.3,0,0,0,4.774,1.546,39.934,39.934,0,0,0,11.313,1.8h.5a40.543,40.543,0,0,0,14.984-3.132c1.579,2.281,3.084,4.611,4.593,6.937,1.69,2.615,3.343,5.253,4.981,7.9s3.258,5.306,4.865,7.973c1.581,2.6,3.162,5.208,4.718,7.823-.587,4.1-1.253,8.193-1.889,12.3-.324,2.084-.642,4.169-.936,6.261-.264,1.892-.509,3.789-.7,5.7l-.389.057-1.005.14-2.021.263-4.052.494q-4.055.477-8.117.894t-8.123.755c-1.306.093-2.674.121-4.025.144s-2.714.027-4.072.022c-2.71-.017-5.447-.039-8.114-.2-2.674-.219-5.4-.5-8.1-.8s-5.41-.594-8.112-.92l-4.05-.506-2.018-.27-1-.143-.279-.043c-.171-1.887-.4-3.754-.644-5.618-.275-2.1-.583-4.184-.9-6.268-.613-4.073-1.255-8.137-1.819-12.2l4.692-7.722Q1522.366,318.526,1524.843,314.572Z" transform="translate(-1503.82 -285.243)" fill="#d13246"/>
            </g>
          </g>
        </g>
      </g>
    </g>
    <text id="Legs" transform="translate(1414.891 261.86)" fill="#aa1432" font-size="19" font-family="Cairo-Regular, Cairo"><tspan x="-18.601" y="0">Legs</tspan></text>
  </g>
</svg>
