<svg id="Logo" xmlns="http://www.w3.org/2000/svg" xmlns:xlink="http://www.w3.org/1999/xlink" width="313.256" height="232.624" viewBox="0 0 313.256 232.624">
  <defs>
    <linearGradient id="linear-gradient" x1="0.021" y1="0.807" x2="-0.078" y2="0.871" gradientUnits="objectBoundingBox">
      <stop offset="0" stop-color="#e4a026" stop-opacity="0"/>
      <stop offset="0.951" stop-color="#aa7322"/>
    </linearGradient>
    <linearGradient id="linear-gradient-2" x1="0.241" y1="0.679" x2="0.039" y2="0.838" gradientUnits="objectBoundingBox">
      <stop offset="0" stop-color="#aa7322" stop-opacity="0"/>
      <stop offset="1" stop-color="#aa7322"/>
    </linearGradient>
    <linearGradient id="linear-gradient-3" x1="0.754" y1="0.36" x2="1.046" y2="0.183" gradientUnits="objectBoundingBox">
      <stop offset="0" stop-color="#d69128" stop-opacity="0"/>
      <stop offset="0.277" stop-color="#ca8926" stop-opacity="0.255"/>
      <stop offset="0.9" stop-color="#ae7622" stop-opacity="0.894"/>
      <stop offset="1" stop-color="#aa7322"/>
    </linearGradient>
    <linearGradient id="linear-gradient-4" x1="0.754" y1="0.362" x2="1.041" y2="0.192" gradientUnits="objectBoundingBox">
      <stop offset="0" stop-color="#aa7322" stop-opacity="0"/>
      <stop offset="0.277" stop-color="#aa7322" stop-opacity="0.255"/>
      <stop offset="0.9" stop-color="#aa7322" stop-opacity="0.894"/>
      <stop offset="1" stop-color="#aa7322"/>
    </linearGradient>
    <linearGradient id="linear-gradient-5" x1="0.694" y1="0.407" x2="1.083" y2="0.202" gradientUnits="objectBoundingBox">
      <stop offset="0" stop-color="#de9b27" stop-opacity="0"/>
      <stop offset="0.277" stop-color="#d09025" stop-opacity="0.255"/>
      <stop offset="0.9" stop-color="#af7722" stop-opacity="0.894"/>
      <stop offset="1" stop-color="#aa7322"/>
    </linearGradient>
    <linearGradient id="linear-gradient-6" x1="0.758" y1="0.625" x2="1.009" y2="0.755" xlink:href="#linear-gradient-2"/>
    <linearGradient id="linear-gradient-7" x1="0.79" y1="0.627" x2="1.027" y2="0.736" xlink:href="#linear-gradient-2"/>
    <linearGradient id="linear-gradient-8" x1="-0.026" y1="0.222" x2="-0.128" y2="0.168" xlink:href="#linear-gradient-2"/>
    <linearGradient id="linear-gradient-9" x1="-0.025" y1="0.238" x2="-0.142" y2="0.179" xlink:href="#linear-gradient-2"/>
    <linearGradient id="linear-gradient-10" x1="-0.019" y1="0.788" x2="-0.119" y2="0.844" xlink:href="#linear-gradient-2"/>
  </defs>
  <g id="Group_1" data-name="Group 1">
    <g id="Group_7" data-name="Group 7" transform="translate(59.611 0)">
      <g id="Group_1-2" data-name="Group 1" transform="translate(0 0.152)">
        <path id="Path_1" data-name="Path 1" d="M129.075,186.842l-11.955,18.192a5.717,5.717,0,0,0,1.572,7.875h0a5.585,5.585,0,0,0,7.793-1.588l9.337-14.209Z" transform="translate(-116.181 -94.739)" fill="#e4a028"/>
        <path id="Path_2" data-name="Path 2" d="M214.961,28.98a5.585,5.585,0,0,0-7.793,1.589L161.975,99.34l6.748,10.269,47.81-72.754A5.718,5.718,0,0,0,214.961,28.98Z" transform="translate(-135.417 -28.031)" fill="#e4a028"/>
        <path id="Path_3" data-name="Path 3" d="M214.961,28.98a5.585,5.585,0,0,0-7.793,1.589L161.975,99.34l6.748,10.269,47.81-72.754A5.718,5.718,0,0,0,214.961,28.98Z" transform="translate(-135.417 -28.031)" fill="url(#linear-gradient)"/>
      </g>
      <g id="Group_2" data-name="Group 2" transform="translate(1.185 54.713)">
        <path id="Path_4" data-name="Path 4" d="M154.021,183.977l-34.858-53.044a5.719,5.719,0,0,1,1.572-7.875h0a5.585,5.585,0,0,1,7.793,1.589l34.857,53.044a5.717,5.717,0,0,1-1.572,7.875h0A5.585,5.585,0,0,1,154.021,183.977Z" transform="translate(-118.225 -122.109)" fill="#e4a028"/>
      </g>
      <g id="Group_3" data-name="Group 3" transform="translate(111.516 0)">
        <path id="Path_5" data-name="Path 5" d="M318.77,30.307a5.585,5.585,0,0,0-7.793-1.589,5.718,5.718,0,0,0-1.572,7.875l10.77,16.389,6.748-10.269Z" transform="translate(-308.466 -27.769)" fill="#e4a028"/>
        <path id="Path_6" data-name="Path 6" d="M407.959,163.949,358.965,89.392l-6.748,10.269,46.377,70.574a5.585,5.585,0,0,0,7.793,1.589A5.718,5.718,0,0,0,407.959,163.949Z" transform="translate(-326.843 -53.653)" fill="#e4a028"/>
      </g>
      <g id="Group_4" data-name="Group 4" transform="translate(146.353 50.926)">
        <path id="Path_7" data-name="Path 7" d="M382.505,183.888l-13.041,19.953a5.718,5.718,0,0,0,1.592,7.871,5.586,5.586,0,0,0,7.789-1.609l10.433-15.964Z" transform="translate(-368.533 -144.272)" fill="#e4a028"/>
        <path id="Path_8" data-name="Path 8" d="M422.87,144.618l13.219-20.227a5.718,5.718,0,0,0-1.592-7.871,5.586,5.586,0,0,0-7.789,1.609L416.1,134.367Z" transform="translate(-388.512 -115.579)" fill="#e4a028"/>
      </g>
      <g id="Group_5" data-name="Group 5" transform="translate(73.192 0.152)">
        <path id="Path_9" data-name="Path 9" d="M255.845,185.355l-12.522,19.054a5.718,5.718,0,0,0,1.572,7.875,5.585,5.585,0,0,0,7.793-1.589l9.9-15.071Z" transform="translate(-242.384 -94.114)" fill="#e4a028"/>
        <path id="Path_10" data-name="Path 10" d="M341.575,28.98a5.586,5.586,0,0,0-7.794,1.589L289.155,98.478l6.748,10.269,47.244-71.892A5.718,5.718,0,0,0,341.575,28.98Z" transform="translate(-262.03 -28.031)" fill="#e4a028"/>
      </g>
      <g id="Group_6" data-name="Group 6" transform="translate(38.373 0.005)">
        <path id="Path_11" data-name="Path 11" d="M282.252,164.582,233.824,90.888l-6.748,10.269,45.811,69.711a5.585,5.585,0,0,0,7.793,1.589A5.717,5.717,0,0,0,282.252,164.582Z" transform="translate(-201.135 -54.286)" fill="#e4a028"/>
        <path id="Path_12" data-name="Path 12" d="M194.623,53.852l6.748-10.269-8.719-13.268a5.585,5.585,0,0,0-7.793-1.589,5.719,5.719,0,0,0-1.572,7.875Z" transform="translate(-182.347 -27.777)" fill="#e4a028"/>
      </g>
      <path id="Path_13" data-name="Path 13" d="M422.87,144.618l13.219-20.227a5.718,5.718,0,0,0-1.592-7.871,5.586,5.586,0,0,0-7.789,1.609L416.1,134.367Z" transform="translate(-242.159 -64.653)" fill="url(#linear-gradient-2)"/>
      <path id="Path_14" data-name="Path 14" d="M382.505,183.888l-13.041,19.953a5.718,5.718,0,0,0,1.592,7.871,5.586,5.586,0,0,0,7.789-1.609l10.433-15.964Z" transform="translate(-222.18 -93.346)" fill="url(#linear-gradient-3)"/>
      <path id="Path_15" data-name="Path 15" d="M255.845,185.355l-12.522,19.054a5.718,5.718,0,0,0,1.572,7.875,5.585,5.585,0,0,0,7.793-1.589l9.9-15.071Z" transform="translate(-169.192 -93.962)" fill="url(#linear-gradient-4)"/>
      <path id="Path_16" data-name="Path 16" d="M129.075,186.842l-11.955,18.192a5.717,5.717,0,0,0,1.572,7.875h0a5.585,5.585,0,0,0,7.793-1.588l9.337-14.209Z" transform="translate(-116.181 -94.587)" fill="url(#linear-gradient-5)"/>
      <path id="Path_17" data-name="Path 17" d="M318.77,30.307a5.585,5.585,0,0,0-7.793-1.589,5.718,5.718,0,0,0-1.572,7.875l10.77,16.389,6.748-10.269Z" transform="translate(-196.949 -27.769)" fill="url(#linear-gradient-6)"/>
      <path id="Path_18" data-name="Path 18" d="M194.623,53.852l6.748-10.269-8.719-13.268a5.585,5.585,0,0,0-7.793-1.589,5.719,5.719,0,0,0-1.572,7.875Z" transform="translate(-143.974 -27.772)" fill="url(#linear-gradient-7)"/>
      <path id="Path_19" data-name="Path 19" d="M407.959,163.949,358.965,89.392l-6.748,10.269,46.377,70.574a5.585,5.585,0,0,0,7.793,1.589A5.718,5.718,0,0,0,407.959,163.949Z" transform="translate(-215.327 -53.653)" fill="url(#linear-gradient-8)"/>
      <path id="Path_20" data-name="Path 20" d="M282.252,164.582,233.824,90.888l-6.748,10.269,45.811,69.711a5.585,5.585,0,0,0,7.793,1.589A5.717,5.717,0,0,0,282.252,164.582Z" transform="translate(-162.762 -54.282)" fill="#e4a028"/>
      <path id="Path_21" data-name="Path 21" d="M282.252,164.582,233.824,90.888l-6.748,10.269,45.811,69.711a5.585,5.585,0,0,0,7.793,1.589A5.717,5.717,0,0,0,282.252,164.582Z" transform="translate(-162.762 -54.282)" fill="url(#linear-gradient-9)"/>
      <path id="Path_22" data-name="Path 22" d="M341.575,28.98a5.586,5.586,0,0,0-7.794,1.589L289.155,98.478l6.748,10.269,47.244-71.892A5.718,5.718,0,0,0,341.575,28.98Z" transform="translate(-188.838 -27.879)" fill="url(#linear-gradient-10)"/>
    </g>
    <g id="Group_8" data-name="Group 8" transform="translate(0 148.014)">
      <path id="Path_23" data-name="Path 23" d="M74.678,317.82H100.2V307.487a13.614,13.614,0,0,0-1.964-7.665q-1.966-2.958-6.186-2.961H80.3l1.844-3.59q.922-1.795,2.038-3.612t3.348-5.167l-2.669-1.5q-1.795,2.184-3.566,4.681a34.153,34.153,0,0,0-2.645,4.245l-2.523,4.948,2.474,3.349H91.755a3.847,3.847,0,0,1,3.614,2.182,10.965,10.965,0,0,1,1.091,5.046v7.037H63.368V304.334a35.469,35.469,0,0,0-.461-4.9q-.462-3.1-1.093-5.87l-3.056.143q.339,2.816.607,5.606t.267,4.633v10.529H54.537a5.351,5.351,0,0,1-2.232-.512,7.6,7.6,0,0,1-1.844-1.14,17.391,17.391,0,0,0,.679-5.14v-11.7H47.405v11.741a10.424,10.424,0,0,1-.995,4.827,3.374,3.374,0,0,1-3.227,1.919h-4.8V295.987H34.646v23.24a6.334,6.334,0,0,1-1.189,3.759,7.815,7.815,0,0,1-3.2,2.6,10.319,10.319,0,0,1-4.342.922,9.979,9.979,0,0,1-4.391-.971,7.918,7.918,0,0,1-3.2-2.74,7.1,7.1,0,0,1-1.189-4.053,51.754,51.754,0,0,1,.533-5.626q.533-4.076,1.261-8.346l-3.589-.2q-.778,4.465-1.359,8.783a52.9,52.9,0,0,0-.582,6.164,8.928,8.928,0,0,0,1.7,5.359,11.212,11.212,0,0,0,4.609,3.665,15.552,15.552,0,0,0,6.453,1.309,15.958,15.958,0,0,0,6.089-1.14,10.188,10.188,0,0,0,4.464-3.421,9.1,9.1,0,0,0,1.673-5.532V317.82h5.967a5.773,5.773,0,0,0,4.61-2.036,8.166,8.166,0,0,0,5.385,2.036H74.678Z" transform="translate(-13.395 -282.986)"/>
      <path id="Path_24" data-name="Path 24" d="M202.723,321.468h-13.2V300.557q-1.8-.339-4.536-.632a44.942,44.942,0,0,0-4.682-.29,11.627,11.627,0,0,0-6.356,1.479,7.619,7.619,0,0,0-3.154,4.317,25.589,25.589,0,0,0-.873,7.353,18.986,18.986,0,0,0,1.722,8.685q1.722,3.347,7.01,3.346h7.132a18.726,18.726,0,0,1-.63,5.58,4.34,4.34,0,0,1-1.674,2.5,5.437,5.437,0,0,1-2.74.606,50.719,50.719,0,0,1-7.084-.677v3.3a59.146,59.146,0,0,0,7.326.73q4.222,0,6.186-2.962t2.256-9.072h17.028V300.557h-3.736Zm-16.932,0h-5.724q-3.883,0-5.143-2.45a13.809,13.809,0,0,1-1.262-6.333,18.668,18.668,0,0,1,.655-5.411,5.726,5.726,0,0,1,2.305-3.2,8.311,8.311,0,0,1,4.608-1.091,36.277,36.277,0,0,1,4.561.342Z" transform="translate(-79.146 -289.979)"/>
      <rect id="Rectangle_1" data-name="Rectangle 1" width="3.688" height="4.075" transform="translate(123.578 38.718)"/>
      <rect id="Rectangle_2" data-name="Rectangle 2" width="3.688" height="4.075" transform="translate(155.902 1.991)"/>
      <rect id="Rectangle_3" data-name="Rectangle 3" width="3.687" height="4.075" transform="translate(149.838 1.991)"/>
      <rect id="Rectangle_4" data-name="Rectangle 4" width="3.688" height="4.075" transform="translate(224.538 38.718)"/>
      <rect id="Rectangle_5" data-name="Rectangle 5" width="3.687" height="4.075" transform="translate(230.603 38.718)"/>
      <path id="Path_25" data-name="Path 25" d="M344.184,293.564h-3.736v20.911H328.66V304.334a35.462,35.462,0,0,0-.461-4.9q-.462-3.1-1.092-5.87l-3.057.143q.339,2.816.607,5.606t.267,4.633v10.529H319.83a5.353,5.353,0,0,1-2.233-.512,7.6,7.6,0,0,1-1.844-1.14,17.354,17.354,0,0,0,.679-5.14v-11.7H312.7v11.741a10.424,10.424,0,0,1-.995,4.827,3.372,3.372,0,0,1-3.226,1.919h-4.8V295.987h-3.736v18.487h-30.5V293.564H265.7v20.911H253.912V282.986h-3.736V317.82h59.465a5.771,5.771,0,0,0,4.609-2.036,8.167,8.167,0,0,0,5.385,2.036h24.549Z" transform="translate(-112.854 -282.986)"/>
      <path id="Path_26" data-name="Path 26" d="M440.309,315.67q0-8.585-3.565-12.4a11.636,11.636,0,0,0-8.855-3.808,22.03,22.03,0,0,0-2.838.192,9.72,9.72,0,0,0-1.965.391l.242,2.766h3.93a8.791,8.791,0,0,1,6.526,2.886q2.789,2.885,2.79,10.066V321.4H420.806v3.346h19.5Z" transform="translate(-184.526 -289.909)"/>
      <path id="Path_27" data-name="Path 27" d="M514.262,312.685q0-6.79-2.813-9.7t-8.733-2.909a25.934,25.934,0,0,0-4.707.41,17.655,17.655,0,0,0-3.4.9,46.111,46.111,0,0,0-.873,5.167,53.412,53.412,0,0,0,.291,14.92H480.059V300.557q-1.795-.339-4.536-.632a44.945,44.945,0,0,0-4.682-.29,11.627,11.627,0,0,0-6.356,1.479,7.619,7.619,0,0,0-3.153,4.317,25.573,25.573,0,0,0-.873,7.353,18.985,18.985,0,0,0,1.722,8.685q1.722,3.347,7.011,3.346h7.132a18.749,18.749,0,0,1-.63,5.58,4.343,4.343,0,0,1-1.675,2.5,5.436,5.436,0,0,1-2.74.606,50.7,50.7,0,0,1-7.083-.677v3.3a59.128,59.128,0,0,0,7.325.73q4.222,0,6.186-2.962t2.256-9.072h34.3Zm-37.939,8.783H470.6q-3.882,0-5.143-2.45a13.81,13.81,0,0,1-1.261-6.333,18.648,18.648,0,0,1,.655-5.411,5.721,5.721,0,0,1,2.3-3.2,8.311,8.311,0,0,1,4.608-1.091,36.278,36.278,0,0,1,4.561.342Zm34.2,0h-12.76q-.244-1.411-.461-3.763t-.219-4.73a50.1,50.1,0,0,1,.777-9.073,16.63,16.63,0,0,1,4.221-.485q4.268,0,6.356,2.138t2.086,7.082Z" transform="translate(-201.182 -289.979)"/>
      <path id="Path_28" data-name="Path 28" d="M29.729,399.38,20.471,371.7H13.907v32.685h3.637V375.576h.66l9.494,27.63H31.76l9.494-27.63h.661v28.811h3.637V371.7H38.987Z" transform="translate(-13.61 -320.251)"/>
      <path id="Path_29" data-name="Path 29" d="M108.843,372.707a13.942,13.942,0,0,0-7.6-1.82,13.936,13.936,0,0,0-7.6,1.82,10.028,10.028,0,0,0-4.062,5.526,38.413,38.413,0,0,0-.024,19.176,9.588,9.588,0,0,0,4.039,5.36,14.583,14.583,0,0,0,7.7,1.748,14.782,14.782,0,0,0,7.675-1.7,9.4,9.4,0,0,0,4.016-5.289,38.519,38.519,0,0,0-.048-19.294A10.141,10.141,0,0,0,108.843,372.707ZM109.6,395.8a7.123,7.123,0,0,1-2.763,4.181,9.867,9.867,0,0,1-5.55,1.323,9.969,9.969,0,0,1-5.6-1.346,7.17,7.17,0,0,1-2.81-4.252,38.687,38.687,0,0,1,.024-15.8,7.69,7.69,0,0,1,2.81-4.393,9.382,9.382,0,0,1,5.526-1.417,9.267,9.267,0,0,1,5.526,1.441,7.818,7.818,0,0,1,2.81,4.416,30.938,30.938,0,0,1,.826,7.984A30.31,30.31,0,0,1,109.6,395.8Z" transform="translate(-44.877 -319.908)"/>
      <path id="Path_30" data-name="Path 30" d="M171.975,373.875q-2.668-2.173-7.628-2.173H152.682v32.685h11.666q6.187,0,9.139-4.085t2.952-13.061a30.572,30.572,0,0,0-.9-7.841A10.431,10.431,0,0,0,171.975,373.875Zm-7.628,27.3h-8.029V374.914h8.029a7.088,7.088,0,0,1,6.33,3.023q2.03,3.023,2.031,9.635Q172.708,401.176,164.348,401.175Z" transform="translate(-71.902 -320.251)"/>
      <rect id="Rectangle_6" data-name="Rectangle 6" width="3.637" height="32.685" transform="translate(116.063 51.451)"/>
      <path id="Path_31" data-name="Path 31" d="M256.2,387.433a23.566,23.566,0,0,0-5.408-1.795,37.224,37.224,0,0,1-5.243-1.466,4.757,4.757,0,0,1-2.338-1.724,5.733,5.733,0,0,1-.685-3.093q0-5.337,7.085-5.338,2.5,0,9.3.8l.331-3.07a69.955,69.955,0,0,0-9.872-.945q-10.532,0-10.533,8.785a9.462,9.462,0,0,0,.992,4.677,6.938,6.938,0,0,0,3.141,2.786A26.866,26.866,0,0,0,249,388.9a22.84,22.84,0,0,1,4.463,1.229,4.553,4.553,0,0,1,2.173,1.7,5.406,5.406,0,0,1,.637,2.834q0,6.568-6.99,6.567a81.937,81.937,0,0,1-9.777-.851l-.378,3.024,1.7.235a60.6,60.6,0,0,0,8.644.8q10.438,0,10.437-10.06a8.956,8.956,0,0,0-.9-4.322A6.491,6.491,0,0,0,256.2,387.433Z" transform="translate(-108.094 -319.874)"/>
      <path id="Path_32" data-name="Path 32" d="M288.442,374.96H298.5v29.427h3.59V374.96h9.965V371.7H288.442Z" transform="translate(-128.928 -320.251)"/>
      <path id="Path_33" data-name="Path 33" d="M345.629,371.7l-8.974,32.685h3.59l2.361-8.406h13.98l2.362,8.406h3.59L353.564,371.7Zm-2.219,21.018,4.959-17.9h2.456l4.96,17.9Z" transform="translate(-149.179 -320.251)"/>
      <path id="Path_34" data-name="Path 34" d="M415.851,387.525a7.309,7.309,0,0,0,3.165-2.764,8.863,8.863,0,0,0,1.039-4.6q0-4.346-2.385-6.4t-7.345-2.054H398.47v32.685h12.469q4.959,0,7.533-2.149t2.575-6.779a9,9,0,0,0-1.275-5.1A7.643,7.643,0,0,0,415.851,387.525Zm-13.744-12.612h8.076a6.946,6.946,0,0,1,4.676,1.3,5.392,5.392,0,0,1,1.464,4.226,5.077,5.077,0,0,1-5.81,5.763h-8.406Zm13.579,24.892a7.563,7.563,0,0,1-4.888,1.369h-8.691V389.368h8.455a8.244,8.244,0,0,1,4.959,1.345q1.843,1.347,1.843,4.653A5.413,5.413,0,0,1,415.686,399.806Z" transform="translate(-175.144 -320.251)"/>
      <path id="Path_35" data-name="Path 35" d="M474.186,372.707a16.8,16.8,0,0,0-15.209,0,10.028,10.028,0,0,0-4.062,5.526,38.412,38.412,0,0,0-.024,19.176,9.588,9.588,0,0,0,4.039,5.36,14.583,14.583,0,0,0,7.7,1.748,14.783,14.783,0,0,0,7.675-1.7,9.392,9.392,0,0,0,4.015-5.289,38.508,38.508,0,0,0-.047-19.294A10.139,10.139,0,0,0,474.186,372.707Zm.756,23.095a7.123,7.123,0,0,1-2.763,4.181,9.867,9.867,0,0,1-5.55,1.323,9.968,9.968,0,0,1-5.6-1.346,7.171,7.171,0,0,1-2.81-4.252,38.687,38.687,0,0,1,.024-15.8,7.687,7.687,0,0,1,2.81-4.393,9.381,9.381,0,0,1,5.526-1.417,9.27,9.27,0,0,1,5.527,1.441,7.815,7.815,0,0,1,2.81,4.416,30.929,30.929,0,0,1,.827,7.984A30.313,30.313,0,0,1,474.941,395.8Z" transform="translate(-198.338 -319.908)"/>
      <path id="Path_36" data-name="Path 36" d="M535.711,371.7h-3.92l-8.313,13.981L515.212,371.7H511.1l10.107,16.674L511.1,404.387h3.92l8.361-13.556,8.218,13.556h4.109l-10.06-16.106Z" transform="translate(-222.455 -320.251)"/>
    </g>
  </g>
</svg>
