<svg xmlns="http://www.w3.org/2000/svg" xmlns:xlink="http://www.w3.org/1999/xlink" width="119.506" height="202.849" viewBox="0 0 119.506 202.849">
  <defs>
    <clipPath id="clip-path">
      <rect id="Rectangle_108" data-name="Rectangle 108" width="119.506" height="145.181" fill="none"/>
    </clipPath>
  </defs>
  <g id="Group_14536" data-name="Group 14536" transform="translate(-1220.484 -236.86)">
    <g id="Group_8866" data-name="Group 8866" transform="translate(1220.484 294.527)">
      <g id="Group_8865" data-name="Group 8865" clip-path="url(#clip-path)">
        <g id="Group_8864" data-name="Group 8864" transform="translate(8.089 1.059)">
          <path id="Path_22155" data-name="Path 22155" d="M1342.136,527.961h.675q-.545-3.912-1.09-7.823c-.494-3.536-2.53-16.52-3.677-22.066-1.166-5.632-2.717-10.936-3.058-11.121-.2-.108,1.3.662,6.456,35.749C1341.681,524.453,1341.906,526.207,1342.136,527.961Z" transform="translate(-1321.327 -448.564)" fill="#646464"/>
          <path id="Path_22156" data-name="Path 22156" d="M1385.891,585.169c.223.322-1.1,2.082-2.293,2.156-1.24.078-3.209-2.312-2.341-1.98.828.453,1.293,1.111,1.995,1.1S1385.16,585.014,1385.891,585.169Z" transform="translate(-1332.441 -472.255)" fill="#646464"/>
          <path id="Path_22157" data-name="Path 22157" d="M1426.656,558.436a29.42,29.42,0,0,1-1.928-15.4q1.3-10.648,2.735-21.279c5.16-35.088,6.657-35.858,6.456-35.749-.342.184-1.892,5.489-3.057,11.121-1.147,5.546-3.183,18.53-3.677,22.066q-1.2,8.623-2.4,17.246c-.291,2.1-1.147,7.591-1.221,9.5a32.381,32.381,0,0,0,3.043,14.553c1.269,2.8,2.335,6.038,3.04,7.878q.809,2.112,1.617,4.225c.15.392,1.4,4.141,2.644,7.555a102.163,102.163,0,0,1,5.545,30.083c.333,10.5-2.052,18.133-3.329,25.682-.087.511,1.131-3.754,1.923-7.038a75.686,75.686,0,0,0,2.3-15.854c.348-10.993-1.746-21.7-5.208-32.078C1432.6,573.344,1429.66,565.868,1426.656,558.436Z" transform="translate(-1342.692 -448.337)" fill="#646464"/>
          <path id="Path_22158" data-name="Path 22158" d="M1383.755,659a1.234,1.234,0,0,0-.73.363c-.87,1.014.317,16.441.741,16.176.466-.292-.968-13.814-.066-15.781a1.953,1.953,0,0,1,1.2-.343,2.236,2.236,0,0,1,1.245.308c.948,1.836-.518,15.522-.049,15.816.424.266,1.273-14.95.741-16.176-.1-.224-.385-.335-.739-.382-.191-.025-.711-.038-1.22-.035A8.883,8.883,0,0,0,1383.755,659Z" transform="translate(-1332.844 -490.056)" fill="#646464"/>
          <path id="Path_22159" data-name="Path 22159" d="M1409.44,523.583c-1.431,11.45-2.445,15.845-3.339,24.332-.722,6.843-1.546,13.461.477,20.038,1.908,6.2,10.395,22.935,12.43,34.925a2.694,2.694,0,0,1-.175,1.928,2.806,2.806,0,0,1-1.449.926l-18.19,6.821c-4.485,1.682-9.03,3.4-12.919,6.191-2.735,1.966-8.011,7.166-8.8,11.23-.033.169-.548-.477-1.908-.477h.594c-1.36,0-1.876.646-1.908.477-.789-4.064-6.065-9.264-8.8-11.23-3.889-2.8-8.434-4.509-12.919-6.191l-18.189-6.821a2.8,2.8,0,0,1-1.449-.926,2.693,2.693,0,0,1-.175-1.928c2.035-11.99,10.521-28.723,12.43-34.925,2.024-6.576,1.2-13.2.477-20.038-.895-8.487-1.908-12.882-3.34-24.332" transform="translate(-1320.763 -457.402)" fill="#fff"/>
          <path id="Path_22160" data-name="Path 22160" d="M1442.667,461.577a46.32,46.32,0,0,0-1.289-8.693c-1.615-6.416-5.3-9.3-11.876-9.707a11.721,11.721,0,0,1-2.591-.278c-4.9-1.458-9.422-2.737-13.79-5.415-.464-.285-1.8-1.332-1.706-1.081.162.419,1.325,1.405,5.046,3.466a59.29,59.29,0,0,0,6.806,2.843c.49.2,3.213.974,1.417.956-6.882.683-16.334,1.926-20.613,2.59-1.427.222,20.174-2.049,21.355-2.153a20.542,20.542,0,0,1,9.692,1.395c3.1,1.257,5.27,6.015,6.189,11.988.2,1.274.335,2.6.414,3.967.138,2.329.238,5.063.315,7.831.2,7.3.247,14.847.405,15.83A228.985,228.985,0,0,0,1442.667,461.577Z" transform="translate(-1337.98 -436.363)" fill="#646464"/>
          <path id="Path_22161" data-name="Path 22161" d="M1335.171,444.61c-1.795.017.929-.757,1.418-.955a59.482,59.482,0,0,0,6.806-2.844c3.721-2.061,4.884-3.047,5.046-3.466.1-.251-1.242.8-1.706,1.081-4.368,2.678-8.885,3.959-13.79,5.415a11.707,11.707,0,0,1-2.59.278c-6.576.41-10.26,3.291-11.875,9.707a46.3,46.3,0,0,0-1.289,8.693,228.792,228.792,0,0,0,.225,23.539c.158-.983.2-8.526.4-15.83.078-2.769.178-5.5.315-7.831.08-1.363.219-2.693.415-3.967.919-5.973,3.085-10.731,6.189-11.988a20.543,20.543,0,0,1,9.692-1.395c1.182.1,22.782,2.375,21.354,2.153C1351.506,446.536,1342.053,445.293,1335.171,444.61Z" transform="translate(-1316.99 -436.591)" fill="#646464"/>
          <path id="Path_22162" data-name="Path 22162" d="M1379.218,450.894c.238-.354,1.555,3.112,3.185,3.967a2.2,2.2,0,0,0,.445.13c1.515.1,2.833-2.084,3.056-2.119.72.036-1.478,2.424-2.8,2.423C1380.9,455.294,1378.99,451,1379.218,450.894Z" transform="translate(-1331.996 -439.862)" fill="#646464"/>
          <path id="Path_22163" data-name="Path 22163" d="M1336.213,498.528c24.6,7.784,51.241,4.459,76.616-.237l.2.108c.955,12.881,10.259,23.178,10.427,23.075a11.226,11.226,0,0,1-3.223,3.072c-4.361,1.876-9.262-4.314-13.563-2.3-2.954,1.383-3.325,5.732-6.088,7.463-2.995,1.876-6.8-.274-9.7-2.3s-6.9-3.971-9.7-1.818c-1.522,1.17-2.15,3.269-3.754,4.324-1.767,1.162-4.179.677-6.01-.38s-3.335-2.611-5.145-3.706c-5.648-3.418-13.11-1.688-18.731,1.776a22.838,22.838,0,0,1-5.471,2.925c-2,.571-4.418.273-5.715-1.348a8.957,8.957,0,0,1-1.36-2.543c-2.117-5.818-11.181,1.339-11.216-1.543,3.8-7.867,8.639-18.831,12.439-26.7Z" transform="translate(-1318.628 -451.301)" fill="#fff"/>
          <g id="Group_8863" data-name="Group 8863" transform="translate(1.894 43.317)">
            <path id="Path_22164" data-name="Path 22164" d="M1332.375,494.56a101.74,101.74,0,0,0,18.954,3.618,139.424,139.424,0,0,0,19.272.4c6.425-.285,12.828-.951,19.2-1.848s12.709-2.037,19.04-3.225l.284-.053.26.137.2.107.4.212.037.461a37.659,37.659,0,0,0,5.593,16.228c.75,1.24,1.551,2.449,2.411,3.61.43.58.874,1.149,1.334,1.693.228.269.468.542.689.766l.072.07c.005,0,.024.022.018.015l-.008-.006a.676.676,0,0,0-.112-.068c-1.7-.223.237-.034.53.878-.161.677-.087.275-.146.462l-.071.109-.1.143c-.128.169-.25.319-.376.47a16.469,16.469,0,0,1-1.631,1.694,7.108,7.108,0,0,1-1.017.768,3.441,3.441,0,0,1-.646.309,4.3,4.3,0,0,1-.641.2,6.115,6.115,0,0,1-2.589.034,12.336,12.336,0,0,1-2.292-.706c-1.43-.578-2.732-1.273-4.035-1.743a4.924,4.924,0,0,0-3.631-.214,5.8,5.8,0,0,0-2.533,2.735,17.159,17.159,0,0,1-2.573,3.9,5.564,5.564,0,0,1-2.231,1.378,6.2,6.2,0,0,1-2.578.256,9.093,9.093,0,0,1-2.38-.59,16.408,16.408,0,0,1-2.125-1.007c-.672-.381-1.318-.789-1.946-1.213-.64-.442-1.19-.824-1.807-1.194a12.613,12.613,0,0,0-3.772-1.61,4.219,4.219,0,0,0-3.49.584,6.119,6.119,0,0,0-1.287,1.423c-.41.578-.82,1.226-1.36,1.857a5.333,5.333,0,0,1-2.121,1.546,5.681,5.681,0,0,1-2.579.316,8.112,8.112,0,0,1-2.392-.628,11.2,11.2,0,0,1-2.077-1.186c-1.267-.893-2.362-1.888-3.517-2.683a12.26,12.26,0,0,0-3.745-1.723,16.716,16.716,0,0,0-8.353.223,22.871,22.871,0,0,0-4.03,1.477,33.159,33.159,0,0,0-3.781,2.137,17.077,17.077,0,0,1-4.113,2.045,6.949,6.949,0,0,1-4.773-.195,5.011,5.011,0,0,1-1.074-.662,4.816,4.816,0,0,1-.856-.921,9.356,9.356,0,0,1-1.106-2.081,8.368,8.368,0,0,0-.4-.958,2.531,2.531,0,0,0-.251-.395l-.14-.183-.163-.157a2.784,2.784,0,0,0-1.687-.7,11.553,11.553,0,0,0-4.147.672c-.7.207-1.407.438-2.158.618a4.252,4.252,0,0,1-1.245.132,1.81,1.81,0,0,1-.385-.077,1.073,1.073,0,0,1-.4-.263,1.009,1.009,0,0,1-.245-.418,1.97,1.97,0,0,1-.059-.4l-.011-.09.055-.11c2.188-4.386,4.29-8.824,6.4-13.257s4.221-8.868,6.438-13.249l.005-.011v.011Zm0,0,0-.13,0,0c-1.026,2.23-2.025,4.472-3.016,6.717l-2.984,6.732c-1.988,4.49-3.966,8.984-6.039,13.443l.045-.2c.014.046.011.112.026.143s.018.054.033.052c-.005.017.041.012.057.034.056,0,.083.026.159.022a3.5,3.5,0,0,0,.945-.14c.682-.175,1.382-.415,2.09-.637a22.49,22.49,0,0,1,2.186-.595,8.078,8.078,0,0,1,2.351-.191,3.87,3.87,0,0,1,2.331.952l.238.225.2.252a3.6,3.6,0,0,1,.353.531,9.208,9.208,0,0,1,.475,1.075,8.2,8.2,0,0,0,1,1.807,3.513,3.513,0,0,0,1.473,1.169,5.712,5.712,0,0,0,3.9.074,15.833,15.833,0,0,0,3.757-1.963,28.018,28.018,0,0,1,8.144-3.922,17.888,17.888,0,0,1,9.161-.348,13.953,13.953,0,0,1,4.283,1.924c1.285.874,2.392,1.864,3.55,2.66a9.445,9.445,0,0,0,1.77,1,6.4,6.4,0,0,0,1.88.48,3.932,3.932,0,0,0,1.779-.222,3.536,3.536,0,0,0,1.4-1.062c.419-.493.8-1.1,1.237-1.729a7.753,7.753,0,0,1,1.673-1.846,5.362,5.362,0,0,1,2.432-1.015,7.225,7.225,0,0,1,2.527.092,14.384,14.384,0,0,1,4.352,1.824c.653.386,1.317.845,1.894,1.241.6.4,1.2.78,1.816,1.125a10.2,10.2,0,0,0,3.783,1.357,3.9,3.9,0,0,0,3.292-1.112,15.969,15.969,0,0,0,2.244-3.494,11.773,11.773,0,0,1,1.351-1.989,5.8,5.8,0,0,1,2.111-1.564,5.341,5.341,0,0,1,1.3-.356,6.112,6.112,0,0,1,1.315-.023,9.367,9.367,0,0,1,2.388.573c1.476.543,2.785,1.25,4.094,1.779a6.264,6.264,0,0,0,3.739.6,2.5,2.5,0,0,0,.415-.129,1.583,1.583,0,0,0,.352-.163,5.437,5.437,0,0,0,.748-.567,14.63,14.63,0,0,0,1.442-1.493c.112-.132.222-.268.318-.393l.059-.081c.01-.014.008-.012.005-.006-.049.167.04-.254-.115.4.309.882,2.191,1.1.482.858a1.282,1.282,0,0,1-.169-.106l-.061-.05-.087-.077-.126-.123c-.3-.3-.541-.586-.791-.881-.493-.586-.955-1.183-1.4-1.791q-1.34-1.826-2.494-3.767a39.381,39.381,0,0,1-5.694-17.04l.438.674-.2-.109.543.085c-6.354,1.159-12.741,2.169-19.161,2.968s-12.872,1.356-19.342,1.534a126.973,126.973,0,0,1-19.378-.862A95.029,95.029,0,0,1,1332.375,494.56Z" transform="translate(-1319.486 -493.451)" fill="#d13246"/>
          </g>
          <path id="Path_22165" data-name="Path 22165" d="M1415.627,597.877l-.214-1.059c-.077-.351-.171-.7-.256-1.046-.178-.694-.335-1.4-.548-2.079-.77-2.759-1.717-5.45-2.71-8.117-1.986-5.334-4.288-10.527-6.5-15.732-.547-1.3-1.1-2.6-1.594-3.915a26.489,26.489,0,0,1-1.229-3.981,34.913,34.913,0,0,1-.738-8.322c.039-2.808.3-5.622.566-8.442s.561-5.627.932-8.434l1.148-8.419q.544-4.215,1-8.439c-.787,5.611-1.755,11.188-2.647,16.786q-.664,4.2-1.147,8.43c-.332,2.812-.671,5.636-.783,8.492a35.121,35.121,0,0,0,.622,8.573,27.663,27.663,0,0,0,1.21,4.149c.485,1.347,1.02,2.661,1.55,3.978,2.138,5.254,4.349,10.46,6.236,15.774.943,2.655,1.837,5.327,2.549,8.037.2.673.338,1.357.508,2.034.08.34.168.679.241,1.02l.2,1.024a11.6,11.6,0,0,1,.3,1.924.985.985,0,0,1-.142.555,1.25,1.25,0,0,1-.5.369c-.247.118-.582.234-.917.359l-1,.37-1.992.737-3.984,1.477-7.967,2.952c-2.653.989-5.318,1.942-7.969,3.042a41.367,41.367,0,0,0-7.674,4.044,27.08,27.08,0,0,0-3.379,2.806,34.135,34.135,0,0,0-2.959,3.212,19.853,19.853,0,0,0-2.43,3.732l-.244.52c-.077.177-.139.364-.209.546-.026.062-.042.131-.065.2a4.378,4.378,0,0,0-.685-.14h-.593a4.562,4.562,0,0,0-.684.14c-.023-.065-.039-.133-.065-.2-.07-.182-.132-.37-.209-.546l-.244-.52a19.87,19.87,0,0,0-2.43-3.732,34.317,34.317,0,0,0-2.959-3.212,27.078,27.078,0,0,0-3.38-2.806,41.368,41.368,0,0,0-7.674-4.045c-2.653-1.1-5.316-2.054-7.969-3.043l-7.967-2.952-3.984-1.476-1.992-.738-1-.369c-.335-.126-.67-.241-.917-.36a1.256,1.256,0,0,1-.5-.368.979.979,0,0,1-.141-.553,11.543,11.543,0,0,1,.3-1.924l.2-1.024c.072-.341.161-.679.24-1.019.17-.678.313-1.36.511-2.034.712-2.709,1.6-5.382,2.547-8.036,1.887-5.314,4.1-10.521,6.236-15.775.53-1.317,1.065-2.631,1.549-3.978a27.582,27.582,0,0,0,1.211-4.149,35.2,35.2,0,0,0,.622-8.574c-.112-2.856-.451-5.68-.783-8.492s-.706-5.631-1.148-8.43c-.892-5.6-1.86-11.175-2.647-16.786q.455,4.224,1,8.44l1.147,8.418q.557,4.21.932,8.435c.262,2.819.527,5.634.565,8.441a34.835,34.835,0,0,1-.738,8.322,26.481,26.481,0,0,1-1.229,3.98c-.494,1.31-1.047,2.612-1.6,3.914-2.211,5.205-4.512,10.4-6.5,15.732-.993,2.667-1.939,5.358-2.71,8.117-.214.683-.367,1.386-.546,2.081-.085.348-.178.694-.256,1.046l-.213,1.06a12.016,12.016,0,0,0-.342,2.268,2.614,2.614,0,0,0,.423,1.462,2.856,2.856,0,0,0,1.146.934c.392.188.728.3,1.055.428l.993.376,1.986.754,3.971,1.508,7.944,3.015c5.281,2.044,10.7,3.787,15.215,6.93a25.114,25.114,0,0,1,3.141,2.625,32.534,32.534,0,0,1,2.787,3.04,18.028,18.028,0,0,1,2.191,3.376l.207.442c.064.148.111.3.168.446a6.659,6.659,0,0,1,.263.891l.014.055.007.027a1.116,1.116,0,0,0,.288.534,1.045,1.045,0,0,0,.8.267,1.194,1.194,0,0,0,.263-.064c.05-.02.13-.056.152-.068l.232-.121a2.312,2.312,0,0,1,.346-.138,2.606,2.606,0,0,1,.481-.086,2.654,2.654,0,0,1,.466.084,2.246,2.246,0,0,1,.346.138l.232.121c.022.012.1.049.152.068a1.247,1.247,0,0,0,.263.064,1.046,1.046,0,0,0,.794-.267,1.109,1.109,0,0,0,.288-.533l.007-.028.015-.055a6.467,6.467,0,0,1,.263-.891c.057-.148.1-.3.168-.446l.207-.442a18.017,18.017,0,0,1,2.192-3.376,32.526,32.526,0,0,1,2.786-3.04,25.122,25.122,0,0,1,3.142-2.625c4.517-3.144,9.935-4.884,15.214-6.932l7.944-3.015,3.972-1.508,1.986-.753.993-.377c.326-.127.662-.24,1.055-.427a2.856,2.856,0,0,0,1.145-.934,2.615,2.615,0,0,0,.422-1.461A12.1,12.1,0,0,0,1415.627,597.877Z" transform="translate(-1319.61 -456.512)" fill="#d13246"/>
        </g>
      </g>
    </g>
    <text id="Shoulder" transform="translate(1279.297 262.86)" fill="#aa1432" font-size="20" font-family="Cairo-Regular, Cairo"><tspan x="-37.37" y="0">Shoulder</tspan></text>
  </g>
</svg>
